<?xml version="1.0" standalone="no"?><!DOCTYPE svg PUBLIC "-//W3C//DTD SVG 1.1//EN" "http://www.w3.org/Graphics/SVG/1.1/DTD/svg11.dtd"><svg t="1629382818649" class="icon" viewBox="0 0 1024 1024" version="1.1" xmlns="http://www.w3.org/2000/svg" p-id="10739" xmlns:xlink="http://www.w3.org/1999/xlink" width="500" height="500"><defs><style type="text/css"></style></defs><path d="M298.6 511m-42.2 0a42.2 42.2 0 1 0 84.4 0 42.2 42.2 0 1 0-84.4 0Z" fill="#ffffff" p-id="10740"></path><path d="M737.6 511m-42.2 0a42.2 42.2 0 1 0 84.4 0 42.2 42.2 0 1 0-84.4 0Z" fill="#ffffff" p-id="10741"></path><path d="M787.4 849.2c-4.4 0-8-3.6-8-8v-61.1c0-4.4 3.6-8 8-8s8 3.6 8 8v61.1c0 4.4-3.6 8-8 8zM852.9 849.2c-4.4 0-8-3.6-8-8v-61.1c0-4.4 3.6-8 8-8s8 3.6 8 8v61.1c0 4.4-3.6 8-8 8zM818 849.2c-4.4 0-8-3.6-8-8v-33.4c0-4.4 3.6-8 8-8s8 3.6 8 8v33.4c0 4.4-3.6 8-8 8zM222.3 222.9c-4.4 0-8-3.6-8-8v-61.1c0-4.4 3.6-8 8-8s8 3.6 8 8v61.1c0 4.4-3.6 8-8 8zM287.7 222.9c-4.4 0-8-3.6-8-8v-61.1c0-4.4 3.6-8 8-8s8 3.6 8 8v61.1c0 4.4-3.6 8-8 8zM252.9 222.9c-4.4 0-8-3.6-8-8v-33.4c0-4.4 3.6-8 8-8s8 3.6 8 8v33.4c0 4.4-3.6 8-8 8zM516.2 746.2c-54 0-106.8-18.6-148.8-52.5-41.3-33.3-70.5-80.1-82.3-131.6-1-4.3 1.7-8.6 6-9.6s8.6 1.7 9.6 6c23.1 101 111.7 171.6 215.5 171.6 103 0 191.5-69.9 215.2-170 1-4.3 5.3-7 9.6-5.9 4.3 1 7 5.3 5.9 9.6-12.1 51.1-41.4 97.4-82.6 130.4-42.3 34-93.6 52-148.1 52zM736.6 449c-3.4 0-6.6-2.2-7.6-5.6-28.9-93-113.8-155.4-211.2-155.4-95.7 0-180.2 61-210.1 151.9-1.4 4.2-5.9 6.5-10.1 5.1-4.2-1.4-6.5-5.9-5.1-10.1 15.5-47 44.9-87.4 84.9-116.9 40.9-30.1 89.4-46 140.4-46 51.6 0 100.7 16.3 141.9 47.1 39.8 29.8 69.9 72.2 84.6 119.5 1.3 4.2-1 8.7-5.3 10-0.8 0.3-1.6 0.4-2.4 0.4z" fill="#ffffff" p-id="10742"></path><path d="M711.2 768.8c-2.5 0-4.9-1.2-6.5-3.3-2.6-3.6-1.8-8.6 1.8-11.2 82.2-59.1 131.3-154.7 131.3-255.8 0-173.6-141.3-314.9-314.9-314.9-4.4 0-8-3.6-8-8s3.6-8 8-8c88.4 0 171.5 34.4 234 96.9s96.9 145.6 96.9 234c0 53.4-13 106.4-37.7 153.4-23.8 45.5-58.5 85.4-100.3 115.4-1.3 1-3 1.5-4.6 1.5zM522.9 829.4c-88.4 0-171.5-34.4-234-96.9S192 586.9 192 498.5c0-45.6 9.1-89.8 27.1-131.3 17.4-40.1 42.2-75.9 73.7-106.4 3.2-3.1 8.2-3 11.3 0.2 3.1 3.2 3 8.2-0.2 11.3-61.9 59.8-96 140.2-96 226.2 0 173.6 141.3 314.9 314.9 314.9 9.5 0 19.3-0.5 29.2-1.4 4.4-0.4 8.3 2.8 8.7 7.2 0.4 4.4-2.8 8.3-7.2 8.7-10.3 1-20.6 1.5-30.6 1.5z" fill="#ffffff" p-id="10743"></path><path d="M478.2 234.6c-27.6 0-50.1-22.5-50.1-50.2 0-27.7 22.5-50.2 50.1-50.2 25.5 0 47 19.1 49.8 44.4 0.2 1.8 0.4 3.8 0.4 5.8 0 27.7-22.5 50.2-50.2 50.2z m0-84.4c-18.8 0-34.1 15.3-34.1 34.2s15.3 34.2 34.1 34.2c18.9 0 34.2-15.3 34.2-34.2 0-1.3-0.1-2.7-0.2-3.9-2-17.3-16.6-30.3-34-30.3zM593.5 860.8c-27.7 0-50.2-22.5-50.2-50.2 0-27.7 22.5-50.2 50.2-50.2s50.2 22.5 50.2 50.2c0 27.7-22.5 50.2-50.2 50.2z m0-84.4c-18.9 0-34.2 15.3-34.2 34.2 0 18.9 15.3 34.2 34.2 34.2s34.2-15.3 34.2-34.2c0-18.9-15.3-34.2-34.2-34.2zM310.6 552.2c-27.7 0-50.2-22.5-50.2-50.2s22.5-50.2 50.2-50.2c27.7 0 50.2 22.5 50.2 50.2s-22.5 50.2-50.2 50.2z m0-84.4c-18.9 0-34.2 15.3-34.2 34.2 0 18.9 15.3 34.2 34.2 34.2s34.2-15.3 34.2-34.2c0-18.9-15.3-34.2-34.2-34.2zM749.6 552.2c-27.7 0-50.2-22.5-50.2-50.2s22.5-50.2 50.2-50.2c27.7 0 50.2 22.5 50.2 50.2s-22.5 50.2-50.2 50.2z m0-84.4c-18.9 0-34.2 15.3-34.2 34.2 0 18.9 15.3 34.2 34.2 34.2 18.9 0 34.2-15.3 34.2-34.2 0-18.9-15.3-34.2-34.2-34.2z" fill="#ffffff" p-id="10744"></path><path d="M701.5 510H363c-4.4 0-8-3.6-8-8s3.6-8 8-8h338.5c4.4 0 8 3.6 8 8s-3.6 8-8 8zM518.4 415.1c-62.6 0-122.8-18.6-174-53.8-3.6-2.5-4.6-7.5-2.1-11.1 2.5-3.6 7.5-4.6 11.1-2.1 48.6 33.4 105.6 51 165 51 58.7 0 115.4-17.3 163.8-50.1 3.7-2.5 8.6-1.5 11.1 2.1 2.5 3.7 1.5 8.6-2.1 11.1-51.1 34.6-110.9 52.9-172.8 52.9z" fill="#ffffff" p-id="10745"></path><path d="M524.2 746.3c-1.7 0-3.5-0.6-5-1.7-3.5-2.8-4-7.8-1.3-11.2 53-66.5 81.1-144.3 81.1-225 0-80.1-27.6-157.3-79.7-223.3-2.7-3.5-2.1-8.5 1.3-11.2 3.5-2.7 8.5-2.1 11.2 1.3 54.4 68.9 83.1 149.5 83.1 233.3 0 84.3-29.2 165.6-84.5 235-1.5 1.8-3.9 2.8-6.2 2.8z" fill="#ffffff" p-id="10746"></path><path d="M519.1 746.3c-2.4 0-4.7-1-6.3-3-55.3-69.4-84.5-150.7-84.5-235 0-83.7 28.7-164.4 83.1-233.3 2.7-3.5 7.8-4.1 11.2-1.3 3.5 2.7 4.1 7.8 1.3 11.2-52.1 66-79.7 143.3-79.7 223.3 0 80.7 28 158.5 81.1 225 2.8 3.5 2.2 8.5-1.3 11.2-1.4 1.3-3.1 1.9-4.9 1.9z" fill="#ffffff" p-id="10747"></path><path d="M348.9 666.2c-2.5 0-5.1-1.2-6.6-3.5-2.5-3.6-1.6-8.6 2.1-11.1 51.3-35.2 111.4-53.8 174-53.8 61.9 0 121.7 18.3 172.8 52.9 3.7 2.5 4.6 7.5 2.1 11.1-2.5 3.7-7.5 4.6-11.1 2.1-48.4-32.8-105.1-50.1-163.8-50.1-59.3 0-116.4 17.6-165 51-1.4 0.9-2.9 1.4-4.5 1.4z" fill="#ffffff" p-id="10748"></path></svg>